<?xml version="1.0" standalone="no"?>
<!DOCTYPE svg PUBLIC "-//W3C//DTD SVG 20010904//EN"
 "http://www.w3.org/TR/2001/REC-SVG-20010904/DTD/svg10.dtd">
<svg version="1.0" xmlns="http://www.w3.org/2000/svg"
 width="1330.000000pt" height="1330.000000pt" viewBox="0 0 1330.000000 1330.000000"
 preserveAspectRatio="xMidYMid meet">

<g transform="translate(0.000000,1330.000000) scale(0.100000,-0.100000)"
fill="#000000" stroke="none">
<path d="M1598 9119 c-229 -30 -463 -166 -604 -352 -60 -79 -127 -219 -153
-321 -21 -78 -21 -99 -21 -1228 l0 -1148 270 0 270 0 0 350 0 350 355 0 355 0
0 -350 0 -350 275 0 276 0 -3 1158 c-3 1155 -3 1157 -25 1227 -80 259 -245
460 -468 573 -99 49 -166 71 -275 87 -104 16 -151 17 -252 4z m266 -577 c80
-36 131 -85 168 -160 l33 -67 0 -495 0 -495 -353 -3 -353 -2 3 487 c3 485 3
488 26 546 33 81 110 161 187 193 52 21 72 24 150 21 66 -2 103 -9 139 -25z"/>
<path d="M2900 7600 l0 -1530 275 0 275 0 0 620 0 620 223 0 c214 0 224 -1
275 -25 65 -30 140 -104 172 -170 l25 -50 3 -497 3 -498 279 0 280 0 0 458 c0
348 -4 480 -15 552 -25 170 -78 299 -175 430 -33 44 -60 83 -60 86 0 3 26 42
59 87 82 114 105 159 140 262 44 133 51 235 51 735 l0 450 -277 -2 -278 -3 -5
-500 c-5 -500 -5 -500 -28 -547 -38 -75 -96 -134 -170 -170 l-66 -33 -218 -3
-218 -3 0 630 0 631 -275 0 -275 0 0 -1530z"/>
<path d="M4980 7600 l0 -1530 275 0 275 0 0 620 0 620 355 0 355 0 0 -620 0
-620 270 0 270 0 0 1530 0 1530 -270 0 -270 0 0 -630 0 -630 -355 0 -355 0 -2
628 -3 627 -272 3 -273 2 0 -1530z"/>
<path d="M997 5288 c-9 -24 -43 -121 -76 -216 l-60 -173 36 3 c35 3 38 6 52
51 l15 48 80 -3 80 -3 15 -47 c13 -45 17 -48 48 -48 18 0 33 3 33 7 0 3 -32
100 -72 215 l-71 208 -32 0 c-29 0 -34 -5 -48 -42z m98 -207 c6 -20 3 -21 -49
-21 -31 0 -56 3 -56 7 0 5 12 44 27 88 l26 80 23 -67 c12 -36 25 -76 29 -87z"/>
<path d="M1310 5115 c0 -208 1 -215 20 -215 19 0 20 8 22 181 l3 180 76 -178
c42 -99 82 -178 89 -178 7 0 46 79 89 180 l76 180 3 -182 c2 -154 5 -183 17
-183 13 0 15 32 15 215 0 205 -1 215 -19 215 -16 0 -35 -36 -97 -185 -43 -102
-82 -185 -85 -185 -4 0 -14 19 -23 41 -9 23 -44 106 -78 185 -54 128 -63 144
-84 144 l-24 0 0 -215z"/>
<path d="M1900 5124 c-41 -114 -77 -211 -79 -216 -2 -6 5 -8 15 -6 11 2 25 24
38 61 l21 57 97 0 97 0 18 -56 c16 -51 35 -75 49 -62 2 3 -30 100 -72 217 -57
157 -81 211 -93 211 -12 0 -36 -54 -91 -206z m169 -61 c1 -10 -21 -13 -79 -13
-44 0 -80 2 -80 5 0 3 59 171 76 215 5 14 82 -177 83 -207z"/>
<path d="M2260 5115 c0 -183 2 -215 15 -215 12 0 15 29 17 182 l3 181 120
-181 c79 -119 126 -182 138 -182 16 0 17 17 17 215 0 184 -2 215 -15 215 -13
0 -15 -27 -15 -180 0 -99 -3 -180 -7 -180 -5 0 -61 81 -126 180 -66 99 -125
180 -133 180 -12 0 -14 -37 -14 -215z"/>
<path d="M2746 5119 c-42 -117 -74 -214 -72 -217 14 -13 33 11 49 62 l18 56
97 0 97 0 21 -57 c13 -37 27 -59 38 -61 10 -2 17 0 15 6 -2 5 -38 102 -79 216
-54 150 -79 206 -91 206 -11 0 -37 -58 -93 -211z m137 47 c20 -57 37 -106 37
-110 0 -3 -36 -6 -80 -6 -44 0 -80 3 -80 8 0 15 73 212 79 212 3 0 23 -47 44
-104z"/>
<path d="M3100 5115 c0 -208 1 -215 20 -215 19 0 20 7 20 100 l0 100 120 0
120 0 0 -100 c0 -82 3 -100 15 -100 13 0 15 31 15 215 0 184 -2 215 -15 215
-12 0 -15 -18 -15 -100 l0 -100 -120 0 -120 0 0 100 c0 93 -1 100 -20 100 -19
0 -20 -7 -20 -215z"/>
<path d="M3690 5115 l0 -215 35 0 35 0 0 95 c0 125 12 125 105 0 l69 -95 44 0
c34 0 42 3 35 13 -67 85 -151 195 -157 204 -4 8 23 50 74 113 l81 100 -43 0
c-42 -1 -44 -2 -111 -90 -37 -50 -75 -90 -83 -90 -11 0 -14 18 -14 90 l0 90
-35 0 -35 0 0 -215z"/>
<path d="M4162 5310 c-51 -31 -72 -88 -72 -195 0 -108 20 -161 72 -193 49 -31
133 -30 178 1 60 40 75 78 75 192 0 114 -15 152 -75 192 -44 30 -131 32 -178
3z m165 -26 c41 -26 56 -71 56 -169 0 -134 -35 -187 -128 -189 -89 -2 -135 63
-135 188 0 114 26 164 100 190 22 8 82 -3 107 -20z"/>
<path d="M4532 5118 c3 -192 5 -213 20 -216 16 -3 18 12 20 180 l3 183 76
-180 c44 -106 81 -180 89 -180 8 0 45 74 89 178 l76 178 3 -180 c2 -152 5
-181 17 -181 13 0 15 32 15 215 0 204 -1 215 -19 215 -15 0 -35 -38 -97 -185
-43 -102 -81 -185 -84 -185 -3 0 -40 82 -82 183 -69 165 -79 182 -102 185
l-26 3 2 -213z"/>
<path d="M5080 5115 c0 -184 2 -215 15 -215 12 0 15 17 15 90 l0 90 75 0 c127
0 175 34 175 123 0 96 -48 127 -197 127 l-83 0 0 -215z m221 156 c21 -22 29
-39 29 -66 0 -27 -8 -44 -29 -66 -28 -27 -34 -29 -110 -29 l-81 0 0 95 0 95
81 0 c76 0 82 -2 110 -29z"/>
<path d="M5470 5115 l0 -215 130 0 c109 0 130 2 130 15 0 12 -19 15 -110 15
l-110 0 0 90 0 90 95 0 c78 0 95 3 95 15 0 12 -17 15 -95 15 l-95 0 0 80 0 80
110 0 c91 0 110 3 110 15 0 13 -21 15 -130 15 l-130 0 0 -215z"/>
<path d="M5790 5315 c0 -12 15 -15 75 -15 l75 0 0 -200 c0 -171 2 -200 15
-200 13 0 15 29 15 200 l0 200 75 0 c60 0 75 3 75 15 0 13 -25 15 -165 15
-140 0 -165 -2 -165 -15z"/>
<path d="M6210 5115 l0 -215 130 0 c109 0 130 2 130 15 0 12 -19 15 -110 15
l-110 0 0 90 0 90 95 0 c78 0 95 3 95 15 0 12 -17 15 -95 15 l-95 0 0 80 0 80
110 0 c91 0 110 3 110 15 0 13 -21 15 -130 15 l-130 0 0 -215z"/>
<path d="M6570 5115 c0 -184 2 -215 15 -215 13 0 15 27 15 187 l0 188 125
-188 c69 -103 132 -187 140 -187 13 0 15 31 15 215 0 183 -2 215 -15 215 -12
0 -15 -29 -17 -182 l-3 -183 -123 183 c-67 100 -129 182 -137 182 -13 0 -15
-31 -15 -215z"/>
<path d="M7152 5118 l3 -213 32 -3 32 -3 3 93 3 93 95 0 95 0 3 -92 3 -93 34
0 35 0 0 215 0 215 -35 0 -35 0 0 -95 0 -95 -100 0 -100 0 0 95 0 95 -35 0
-35 0 2 -212z"/>
<path d="M7720 5308 c-25 -58 -148 -403 -145 -407 13 -13 36 16 51 63 l18 56
97 0 97 0 22 -60 c13 -33 29 -60 36 -60 8 0 14 3 14 6 0 5 -112 316 -147 412
-8 20 -33 14 -43 -10z m96 -233 l6 -25 -81 0 c-45 0 -81 2 -81 4 0 4 61 172
76 210 6 15 15 -2 41 -73 18 -50 36 -103 39 -116z"/>
<path d="M8010 5115 c0 -184 2 -215 15 -215 12 0 15 18 15 100 l0 100 64 0
c117 0 156 -32 156 -129 0 -53 8 -71 32 -71 13 0 17 4 11 13 -4 6 -10 43 -14
82 -6 62 -10 72 -39 96 -28 24 -30 28 -13 33 23 7 53 56 53 85 0 12 -6 37 -14
55 -19 46 -73 66 -181 66 l-85 0 0 -215z m213 165 c56 -45 39 -130 -31 -149
-20 -6 -63 -11 -94 -11 l-58 0 0 90 0 90 79 0 c63 0 83 -4 104 -20z"/>
<path d="M8420 5115 c0 -208 1 -215 20 -215 19 0 20 8 22 181 l3 180 76 -178
c44 -102 81 -178 89 -178 8 0 45 76 89 180 l76 180 3 -182 c2 -154 5 -183 17
-183 13 0 15 32 15 215 0 205 -1 215 -19 215 -16 0 -35 -36 -97 -185 -43 -102
-82 -185 -85 -185 -4 0 -14 19 -23 41 -9 23 -44 106 -78 185 -54 128 -63 144
-84 144 l-24 0 0 -215z"/>
<path d="M9023 5310 c-17 -12 -41 -41 -53 -66 -19 -38 -21 -58 -18 -142 3 -85
6 -103 28 -135 31 -46 74 -67 138 -67 104 0 162 77 162 215 0 89 -19 143 -64
185 -38 35 -146 41 -193 10z m163 -25 c35 -23 56 -72 62 -145 8 -120 -33 -199
-111 -214 -46 -9 -101 15 -131 57 -18 24 -21 43 -21 132 0 89 3 108 21 132 44
60 121 77 180 38z"/>
<path d="M9400 5115 c0 -184 2 -215 15 -215 13 0 15 28 15 188 l1 187 122
-187 c80 -124 128 -188 140 -188 16 0 17 17 17 215 0 183 -2 215 -15 215 -12
0 -15 -29 -17 -182 l-3 -183 -123 183 c-67 100 -129 182 -137 182 -13 0 -15
-31 -15 -215z"/>
<path d="M9852 5118 c3 -193 5 -213 21 -216 16 -3 17 12 17 212 0 210 -1 216
-20 216 -20 0 -20 -5 -18 -212z"/>
<path d="M10084 5320 c-33 -13 -64 -59 -64 -96 0 -50 39 -89 115 -114 92 -31
129 -58 133 -99 8 -84 -120 -120 -198 -55 -16 14 -30 34 -30 45 0 10 -7 19
-15 19 -19 0 -20 -39 0 -66 36 -53 158 -72 225 -35 49 26 67 75 46 125 -16 38
-34 49 -171 102 -31 12 -55 30 -64 46 -51 91 109 160 182 78 15 -16 27 -37 27
-45 0 -8 7 -15 15 -15 35 0 1 81 -45 105 -31 16 -121 19 -156 5z"/>
<path d="M1345 4596 c-42 -18 -83 -69 -91 -111 -3 -19 -4 -74 -3 -124 4 -96
16 -123 73 -165 39 -29 133 -29 173 0 44 33 70 79 78 139 19 157 -39 263 -152
272 -28 2 -61 -3 -78 -11z m139 -37 c45 -35 56 -69 56 -172 0 -81 -3 -99 -23
-128 -31 -46 -62 -61 -120 -56 -85 7 -117 59 -117 187 0 91 15 137 55 168 38
30 112 30 149 1z"/>
<path d="M6125 4596 c-36 -16 -83 -68 -91 -101 -3 -13 -4 -69 -2 -124 3 -107
13 -132 72 -175 39 -29 133 -29 173 0 44 33 70 79 78 139 19 157 -39 263 -152
272 -28 2 -61 -3 -78 -11z m139 -37 c45 -35 56 -69 56 -172 0 -81 -3 -99 -23
-128 -31 -46 -62 -61 -120 -56 -85 7 -117 59 -117 187 0 91 15 137 55 168 38
30 112 30 149 1z"/>
<path d="M7690 4591 c-20 -11 -46 -38 -60 -63 -21 -37 -24 -55 -24 -138 0
-106 12 -140 64 -183 58 -50 146 -48 205 4 46 41 58 85 54 201 -4 104 -15 129
-72 172 -38 28 -122 32 -167 7z m161 -37 c35 -31 49 -78 49 -164 0 -97 -17
-142 -62 -170 -62 -38 -134 -22 -175 39 -20 29 -23 47 -23 128 0 103 11 137
57 173 23 18 38 21 80 18 33 -3 61 -12 74 -24z"/>
<path d="M900 4390 l0 -210 135 0 135 0 0 25 0 25 -100 0 -100 0 0 185 0 185
-35 0 -35 0 0 -210z"/>
<path d="M1658 4568 c11 -18 45 -77 76 -131 55 -97 56 -100 56 -178 0 -64 3
-79 15 -79 12 0 15 15 15 72 0 71 1 73 76 206 42 73 73 136 70 139 -14 14 -36
-13 -90 -111 -32 -58 -61 -108 -65 -110 -4 -3 -35 47 -70 110 -47 86 -68 114
-83 114 -20 0 -20 0 0 -32z"/>
<path d="M2151 4573 c-45 -114 -141 -387 -137 -391 14 -13 33 11 50 62 l19 57
96 -3 95 -3 20 -57 c15 -40 26 -58 38 -58 16 0 14 8 -11 78 -16 42 -50 137
-77 210 -51 139 -70 161 -93 105z m73 -138 c20 -55 36 -101 36 -102 0 -2 -36
-3 -80 -3 -44 0 -80 3 -80 8 0 21 75 211 81 204 4 -4 24 -52 43 -107z"/>
<path d="M2440 4390 l0 -210 130 0 c80 0 130 4 130 10 0 6 -43 10 -110 10
l-110 0 0 200 c0 193 -1 200 -20 200 -19 0 -20 -7 -20 -210z"/>
<path d="M3039 4573 c-6 -16 -39 -110 -74 -211 l-64 -183 36 3 c35 3 38 6 52
51 l15 47 77 0 77 0 17 -50 c16 -47 18 -50 52 -50 28 0 34 3 29 16 -3 8 -36
103 -73 210 l-66 194 -34 0 c-27 0 -35 -5 -44 -27z m94 -235 c-2 -5 -26 -8
-54 -8 -34 0 -49 4 -49 13 0 12 29 105 46 147 4 9 17 -17 34 -65 15 -44 25
-83 23 -87z"/>
<path d="M3350 4391 l0 -211 92 0 c79 0 97 3 134 25 59 35 84 89 84 186 0 89
-23 145 -71 180 -30 21 -47 24 -136 27 l-103 4 0 -211z m208 162 c57 -42 67
-68 67 -163 0 -74 -3 -93 -21 -116 -40 -54 -66 -66 -145 -68 l-74 -1 -3 175
c-1 96 0 181 3 188 8 22 139 11 173 -15z"/>
<path d="M3886 4592 c-3 -5 -39 -100 -79 -210 -64 -174 -72 -202 -57 -202 13
0 24 16 37 58 l20 57 95 3 95 3 22 -61 c13 -35 28 -60 37 -60 7 0 14 3 14 8 0
4 -33 97 -74 207 -69 187 -91 227 -110 197z m63 -156 l39 -106 -84 0 -84 0 35
98 c20 53 38 103 40 111 8 21 12 13 54 -103z"/>
<path d="M4170 4391 c0 -181 2 -211 15 -211 12 0 15 17 15 90 l0 90 91 0 c90
0 91 0 125 34 30 30 34 40 34 85 0 42 -5 56 -29 83 l-29 33 -111 3 -111 4 0
-211z m195 175 c39 -17 55 -42 55 -86 0 -70 -47 -100 -155 -100 l-65 0 0 100
0 100 65 0 c36 0 81 -6 100 -14z"/>
<path d="M4520 4590 c0 -6 32 -10 75 -10 l75 0 0 -200 c0 -193 1 -200 20 -200
19 0 20 7 20 200 l0 200 70 0 c40 0 70 4 70 10 0 6 -62 10 -165 10 -103 0
-165 -4 -165 -10z"/>
<path d="M4960 4390 c0 -180 2 -210 15 -210 13 0 15 30 15 210 0 180 -2 210
-15 210 -13 0 -15 -30 -15 -210z"/>
<path d="M5130 4390 c0 -203 1 -210 20 -210 19 0 20 7 20 100 l0 100 95 0 c78
0 95 3 95 15 0 12 -17 15 -95 15 l-95 0 0 85 0 85 110 0 c67 0 110 4 110 10 0
6 -50 10 -130 10 l-130 0 0 -210z"/>
<path d="M5630 4390 l0 -210 30 0 30 0 0 90 c0 87 1 90 23 90 17 0 40 -23 90
-90 65 -87 69 -90 107 -90 22 0 40 2 40 5 0 3 -36 51 -80 107 -44 57 -80 106
-80 110 0 3 30 44 67 90 36 45 71 89 76 96 7 9 0 12 -31 12 -40 0 -43 -3 -109
-90 -40 -53 -74 -89 -83 -87 -12 2 -16 21 -18 90 l-3 87 -29 0 -30 0 0 -210z"/>
<path d="M6470 4390 l0 -210 130 0 c80 0 130 4 130 10 0 6 -43 10 -110 10
l-110 0 0 200 c0 193 -1 200 -20 200 -19 0 -20 -7 -20 -210z"/>
<path d="M6892 4453 c-30 -81 -64 -176 -77 -210 -22 -58 -23 -63 -6 -63 12 0
23 17 38 58 l20 57 96 3 96 3 18 -57 c16 -51 35 -75 49 -62 3 3 -29 97 -69
209 -58 160 -78 205 -93 207 -16 2 -27 -21 -72 -145z m113 -7 c19 -53 35 -101
35 -106 0 -6 -36 -10 -81 -10 -73 0 -80 2 -74 18 4 9 18 49 32 87 41 112 43
118 48 113 2 -2 20 -48 40 -102z"/>
<path d="M7230 4390 l0 -210 100 0 c119 0 154 13 177 67 20 49 10 96 -28 127
-17 14 -34 26 -39 26 -5 0 5 13 21 29 33 33 38 75 15 120 -21 40 -56 51 -156
51 l-90 0 0 -210z m207 156 c25 -30 29 -53 12 -89 -16 -34 -49 -47 -124 -47
l-65 0 0 86 0 87 77 -5 c68 -5 79 -8 100 -32z m17 -187 c21 -16 26 -29 26 -63
0 -67 -28 -87 -134 -93 l-86 -6 0 92 0 91 84 0 c69 0 88 -4 110 -21z"/>
<path d="M8050 4390 c0 -180 2 -210 15 -210 12 0 15 17 15 95 l0 95 85 0 c78
0 88 -2 110 -25 20 -19 25 -35 25 -72 0 -67 9 -93 31 -93 16 0 17 4 9 26 -6
14 -10 48 -10 75 0 42 -5 55 -29 79 l-28 29 28 27 c24 23 29 36 29 73 -1 87
-40 111 -179 111 l-101 0 0 -210z m227 156 c22 -26 29 -68 17 -101 -12 -29
-60 -45 -139 -45 l-75 0 0 83 c0 46 3 87 8 91 4 5 43 6 86 4 71 -4 82 -8 103
-32z"/>
<path d="M8560 4543 c-79 -211 -130 -356 -126 -361 14 -13 33 11 49 62 l18 57
96 -3 96 -3 20 -57 c15 -41 26 -58 39 -58 17 0 17 2 -1 48 -10 26 -44 120 -77
210 -67 187 -79 198 -114 105z m78 -93 c17 -47 33 -93 37 -102 6 -16 -1 -18
-74 -18 -45 0 -81 3 -81 8 0 22 74 212 81 205 4 -4 21 -46 37 -93z"/>
<path d="M8780 4590 c0 -6 32 -10 75 -10 l75 0 0 -200 c0 -193 1 -200 20 -200
19 0 20 7 20 200 l0 200 70 0 c40 0 70 4 70 10 0 6 -62 10 -165 10 -103 0
-165 -4 -165 -10z"/>
<path d="M9220 4390 c0 -180 2 -210 15 -210 13 0 15 30 15 210 0 180 -2 210
-15 210 -13 0 -15 -30 -15 -210z"/>
<path d="M9390 4390 c0 -203 1 -210 20 -210 19 0 20 7 20 100 l0 100 95 0 c78
0 95 3 95 15 0 12 -17 15 -95 15 l-95 0 0 85 0 85 110 0 c67 0 110 4 110 10 0
6 -50 10 -130 10 l-130 0 0 -210z"/>
</g>
</svg>
